<svg viewBox="0 0 209.71 176.76" xmlns="http://www.w3.org/2000/svg"><rect fill="#d77f4a" height="176.76" rx="24.16" width="209.71"/><rect fill="#a7f9cc" height="160.87" rx="12.16" width="190.45" x="9.63" y="8.21"/><path d="m57.28 104.31q0 1.65-4 3.15a34.05 34.05 0 0 1 -9.06 1.91q-3.14.28-9.29.28a18.49 18.49 0 0 1 -3-.16c-1.3-.25-2-.8-2-1.67a1.87 1.87 0 0 1 .54-1.36 1.72 1.72 0 0 1 1.29-.55h1.79q1-4.74 1-20 0-.63-.08-7.11h-1.32-.7c-1.37 0-2-.59-2-1.79a1.67 1.67 0 0 1 1.07-1.65 9.73 9.73 0 0 1 3.48-.36q10.11 0 16.15 1.83c2.68.82 4 1.77 4 2.86a1.75 1.75 0 0 1 -.52 1.24 1.51 1.51 0 0 1 -1.12.55 5.47 5.47 0 0 1 -1.51-.48 14.59 14.59 0 0 0 -2.45-.84 77.85 77.85 0 0 0 -11.06-1.16q0 3.52-.08 11.18c1.63.1 3.21.16 4.71.16q1.58 0 3.27-.12l1.83-.12c1.41 0 2.11.6 2.11 1.79 0 .94-.59 1.53-1.77 1.78a34.91 34.91 0 0 1 -5.44.25c-1.56 0-3.15 0-4.79-.12a104.44 104.44 0 0 1 -.72 12.14h.8c5.2 0 9.13-.39 11.76-1.17a18.85 18.85 0 0 0 3-1.31 6 6 0 0 1 2.32-.8 1.7 1.7 0 0 1 1.22.51 1.56 1.56 0 0 1 .57 1.14z"/><path d="m90.45 89.2c0 1.16-.88 1.75-2.63 1.75-.23 0-1.2-.06-2.89-.19s-3.29-.18-4.78-.18c-1.86 0-3.58.07-5.17.22a13.84 13.84 0 0 0 -2 .23c-.91 0-1.36-.48-1.36-1.44s.74-1.71 2.22-2a39.56 39.56 0 0 1 6.83-.37 64.33 64.33 0 0 1 7.46.25c1.53.22 2.32.8 2.32 1.73zm-1.21 8.68c0 1-.63 1.52-1.91 1.52-.26 0-1.63-.23-4.12-.7a37.71 37.71 0 0 0 -7-.7h-1-1c-1.51 0-2.21-.52-2.21-1.64s.92-1.71 2.78-1.71a60.06 60.06 0 0 1 11.53 1c1.94.4 2.93 1.14 2.93 2.23z"/><path d="m133.59 92.58q0 14.92-3.55 14.92c-.9 0-1.36-.57-1.36-1.71 0 0 .22-1.5.66-4.45a59.87 59.87 0 0 0 .67-8.83q0-7.35-3.47-7.35c-2 0-3.36 1.24-4 3.7q-.72 2.85-.72 11.18a22.79 22.79 0 0 0 .19 2.84c.13 1 .2 1.64.2 1.82 0 1.28-.61 1.93-1.84 1.93-1.46 0-2.2-2.35-2.2-7q0-3 .23-6.19c.15-2.15.22-3.3.22-3.45 0-1.93-1-2.89-3-2.89a4.32 4.32 0 0 0 -4.13 2.55q-1.24 2.47-1.24 7.83 0 3.45.19 6.42a20.5 20.5 0 0 0 .2 2.5 1.57 1.57 0 0 1 -.54 1.23 1.93 1.93 0 0 1 -1.37.49c-1.16 0-1.87-1.11-2.14-3.31-.09-.64-.14-2.29-.14-5a90.05 90.05 0 0 1 1.36-16 12.66 12.66 0 0 1 .9-3.31 1.78 1.78 0 0 1 1.69-1q1.83 0 1.83 2l-.87 4.4a5.51 5.51 0 0 1 4.79-2.35 4.5 4.5 0 0 1 3.85 2.08 7.77 7.77 0 0 1 7-4.07q6.6 0 6.59 11.02z"/><path d="m161.63 98.19c0 1.35-1.37 3.09-4.11 5.2a12.18 12.18 0 0 1 -7.61 2.22 9.26 9.26 0 0 1 -7.36-3.07c-1.84-2.09-2.75-5-2.75-8.61q0-7.07 3.15-11a10.51 10.51 0 0 1 8.67-3.93 11.4 11.4 0 0 1 6.7 1.83 4.93 4.93 0 0 1 2.47 4.11c0 1.31-.61 2-1.83 2a1.35 1.35 0 0 1 -1.24-.61 22.18 22.18 0 0 0 -1.07-2.14c-.93-1-2.6-1.56-5-1.56a6.82 6.82 0 0 0 -5.87 2.87c-1.38 1.91-2.08 4.63-2.08 8.18q0 8.41 6.7 8.41a9 9 0 0 0 6.6-2.81l1.2-1.75a2 2 0 0 1 1.6-1 1.8 1.8 0 0 1 1.27.54 1.6 1.6 0 0 1 .56 1.12z"/><path d="m177.77 81.4q0 1.26-2.19 2.19a16 16 0 0 1 -6.2 1q-4.42 0-4.43-1.67a1.35 1.35 0 0 1 .67-1l1.72-1.14a18.93 18.93 0 0 0 4.45-4.11 7.68 7.68 0 0 0 1.52-4.56c0-1.94-.73-3-2.19-3.16-1.81 1.2-3.09 1.8-3.85 1.8s-1.12-.33-1.12-1c0-.35.31-.81.94-1.37a7 7 0 0 1 4.82-1.77q4 0 4 5.28 0 5.73-6.77 10.23a13 13 0 0 0 1.74.16 9.12 9.12 0 0 0 3.54-.93l1.46-.7a2.53 2.53 0 0 1 1-.29c.57-.02.89.33.89 1.04z"/></svg>