<svg viewBox="0 0 209.71 176.76" xmlns="http://www.w3.org/2000/svg"><rect fill="#b4c2dd" height="176.76" rx="24.16" width="209.71"/><rect fill="#f2f2f2" height="160.87" rx="12.16" width="190.45" x="9.63" y="8.21"/><g fill="#b4c2dd"><path d="m106.73 40.49q-6.88 9.51-13.82 19.33-7.17 10.18-13.91 20.18a33.13 33.13 0 0 1 6.72 22.68 32.35 32.35 0 0 1 -6.72 16.89c.72 1 11.38 14.77 28.93 13.5 14.68-1.07 22.91-11.88 24.11-13.5a27.12 27.12 0 0 0 8.68-17.36 26.61 26.61 0 0 0 -3.31-15.12 278.76 278.76 0 0 0 -15-25.38c-5.31-7.88-10.59-14.94-15.68-21.22z"/><path d="m122.44 58c.73-1.78 1.58-3.65 2.58-5.59a66.43 66.43 0 0 1 7.07-10.92 40.88 40.88 0 0 1 16.07 25.07 17.54 17.54 0 0 1 -.64 9.64c-2.15 5.85-7.19 8.72-9 9.64z"/><path d="m77 80a33.13 33.13 0 0 1 6.72 22.68 32.35 32.35 0 0 1 -6.72 16.89 18.42 18.42 0 0 1 -8 3.12 19.3 19.3 0 0 1 -17.36-7.07 19.71 19.71 0 0 1 -3.86-9c-1.67-8.67 2-15.8 4.5-21.25a50 50 0 0 1 14.81-18.61z"/></g><path d="m118 126.71 15.85-20.06a25.6 25.6 0 0 1 -3.73 8.89 31.7 31.7 0 0 1 -2.7 3.47 39.83 39.83 0 0 1 -9.42 7.7z" fill="#f8d8ca"/><path d="m69.59 121.48 8.82-11.17a14.21 14.21 0 0 1 -2.08 5 17.53 17.53 0 0 1 -1.5 1.93 22 22 0 0 1 -5.24 4.24z" fill="#f8d8ca"/><path d="m139.76 80.93 4.6-7.79a11.83 11.83 0 0 1 -1 3.49 13.28 13.28 0 0 1 -.78 1.35 12.63 12.63 0 0 1 -2.82 2.95z" fill="#f8d8ca"/></svg>