<svg viewBox="0 0 209.71 176.76" xmlns="http://www.w3.org/2000/svg"><rect fill="#a2a1a1" height="176.76" rx="24.16" width="209.71"/><rect fill="#e8f3da" height="160.87" rx="12.16" width="190.45" x="9.63" y="8.21"/><g fill="#a2a1a1"><path d="m53.62 80.78v19.06c0 4.19 6.5 4.19 6.5 0v-19.06c0-4.18-6.5-4.19-6.5 0z"/><path d="m65.83 65.13v48.37c0 4.19 6.5 4.19 6.5 0v-48.37c0-4.18-6.5-4.19-6.5 0z"/><path d="m78.08 43.59v90.58c0 4.18 6.5 4.19 6.5 0v-90.58c0-4.18-6.5-4.19-6.5 0z"/><path d="m90.12 67.46v42.21c0 4.18 6.5 4.19 6.5 0v-42.21c0-4.18-6.5-4.19-6.5 0z"/><path d="m101.8 81.74v19.07c0 4.18 6.5 4.18 6.5 0v-19.07c0-4.18-6.5-4.19-6.5 0z"/><path d="m114 66.09v48.37c0 4.19 6.5 4.19 6.5 0v-48.37c0-4.18-6.5-4.19-6.5 0z"/><path d="m126.26 44.55v90.58c0 4.18 6.5 4.19 6.5 0v-90.58c0-4.18-6.5-4.19-6.5 0z"/><path d="m138.3 68.42v42.21c0 4.18 6.5 4.19 6.5 0v-42.21c0-4.18-6.5-4.19-6.5 0z"/><path d="m149.75 80.13v19.06c0 4.18 6.5 4.19 6.5 0v-19.06c0-4.18-6.5-4.19-6.5 0z"/><path d="m42.07 87.63v5.78a3.25 3.25 0 0 0 6.5 0v-5.78a3.25 3.25 0 0 0 -6.5 0z"/><path d="m160.69 88.38v5.79a3.25 3.25 0 1 0 6.5 0v-5.79a3.25 3.25 0 0 0 -6.5 0z"/></g></svg>