<svg viewBox="0 0 209.71 176.76" xmlns="http://www.w3.org/2000/svg"><rect fill="#4c544e" height="176.76" rx="24.16" width="209.71"/><rect fill="#303a33" height="160.87" rx="12.16" width="190.45" x="9.63" y="8.21"/><path d="m156.81 56.56v3.32c-.17.6-.35 1.2-.51 1.8-1.28 4.87-5.89 9.22-10 9.11-1 0-2.68-.87-2.89-1.65a4.79 4.79 0 0 1 .87-3.73c.75-1 2.44-1.11 3.41-2 1.17-1 2.55-2.26 2.91-3.64 1.31-5-4.46-10.25-9.94-9.23-5.17 1-8 5.5-7.34 11.75a34.87 34.87 0 0 0 6.68 17.25 59.85 59.85 0 0 1 8.55 16.51c5.24 16.15-1.69 30.72-15.09 37.17a3.06 3.06 0 0 0 -1.16.77c-3 4.2-7 6.69-12.31 6.89-4.87.19-9.74.66-14.6 1.08-2.3.2-4.58.6-6.86.9h-3.36c-1.51-.84-3.4-1.61-2.85-3.76.41-1.57 1.44-3 2.37-4.78l-11.27-1.1a11.77 11.77 0 0 0 -.46 1.13c-1.33 4.76-3.21 6.06-8 5.53-.7-.07-1.41-.17-2.12-.24-4.48-.43-5.16-1.69-2.93-5.57a3.66 3.66 0 0 1 -3.15-3.81c0-2 1.52-2.5 3-2.78 2-.36 2.43-1.6 2.67-3.31.4-2.81 1-5.59 1.43-8.39.32-2.08 1.23-4.43.62-6.23a78.2 78.2 0 0 0 -5.17-10.82c-1.71-3.26-3.71-6.37-5.41-9.64a13.67 13.67 0 0 1 -.2-12.74 13.87 13.87 0 0 0 .8-2.46c1.38-5.48 0-7.84-5.38-9.29-1.61-.44-3.05-.95-3.68-2.88a23.31 23.31 0 0 0 -2.44-4.21v-1.42c1.22-2 2.86-3.78 3.59-5.91a13.44 13.44 0 0 1 9.06-9.06c1.48-.48 1.8-1.15 1.33-2.58s-.8-3.16-1.18-4.74h1l1.84 2.06.34-.64c.81.13 1.8 0 2.39.43 2.87 2.11 5.63 4.46 8.63 6.55a24.46 24.46 0 0 1 9.57 14.2c.74 2.74 1.48 5.48 2.34 8.18.92 2.87 2.72 4.75 6 4.86 1.18 0 2.35.33 3.53.37 12 .36 20.16 6.43 25.08 17.1 3.68 8 5 16.58 5.65 25.26.28 3.64.05 7.32.05 11.67a32.17 32.17 0 0 0 9-12.85c1.57-4.15 1.88-8.3 0-12.42-1.47-3.13-3-6.26-4.58-9.33-2.46-4.67-5.24-9.18-7.51-13.95a31.64 31.64 0 0 1 -2.65-20.29c1.47-7.14 7-11.48 14.79-12a14.26 14.26 0 0 1 14.46 9.67c.45 1.33.73 2.6 1.08 3.89z" fill="#c6f7db"/></svg>