<svg viewBox="0 0 209.71 176.76" xmlns="http://www.w3.org/2000/svg"><rect fill="#333" height="176.76" rx="24.16" width="209.71"/><rect fill="#f2f2f2" height="160.87" rx="12.16" width="190.45" x="9.63" y="8.21"/><g fill="#333"><path d="m78.87 75.55v12.18c0 14.83 11.43 26.85 25.54 26.85h5.51c14.11 0 25.55-12 25.55-26.85v-12.18z"/><path d="m72.36 61.53v5.31c0 4.81 3.06 8.71 6.84 8.71h55.93c3.78 0 6.85-3.9 6.85-8.71v-5.31z"/><path d="m101.3 113.02h10.8v7.61h-10.8z"/><path d="m90.28 36.2v18.23"/><path d="m85.28 36.2v18.23c0 6.44 10 6.45 10 0v-18.23c0-6.43-10-6.44-10 0z"/><path d="m84.01 52.05h12.43v7.61h-12.43z"/><path d="m122.72 36.44v18.24"/><path d="m117.72 36.44v18.24c0 6.43 10 6.44 10 0v-18.24c0-6.43-10-6.44-10 0z"/><path d="m103.63 118.91a25.07 25.07 0 0 1 -4 16.75c-7.33 10.7-20.45 10.68-21.54 10.66v6.88c1.86-.1 16.35-1.1 25-13.54a32.28 32.28 0 0 0 5.51-20.75z"/></g><path d="m113.2 68.81-16.52 18.36h8.26l-4.77 14.85 16.54-19.31h-8.01z" fill="#f2f2f2"/><path d="m116.51 52.05h12.43v7.61h-12.43z" fill="#333"/></svg>