<svg xmlns="http://www.w3.org/2000/svg" viewBox="0 0 814.81 156.38"><defs><style>.cls-1{fill:#fff;stroke:#ee5454;stroke-miterlimit:10;stroke-width:5px;}</style></defs><title>Asset 13</title><g id="Layer_2" data-name="Layer 2"><g id="Layer_1-2" data-name="Layer 1"><path class="cls-1" d="M39.31,152q-8.7,0-13.35-4.57t-4.65-13.3V78.6H16.05Q2.5,78.6,2.5,65.5q0-12.9,13.55-12.9h5.26q.81-20,11.63-30.17t31.45-12.3l5.66-.6Q76.72,8.74,80.67,11A11.8,11.8,0,0,1,86,17a14.8,14.8,0,0,1,.81,7.64,13,13,0,0,1-3,6.75,9.24,9.24,0,0,1-6.27,3.18l-3.64.2C67.69,35.13,63.38,36.56,61,39s-3.64,6-3.64,10.62v3h52q8.68,0,13.35,5t4.65,14.09v61.13q0,9.34-4.55,14.29t-13.45,5q-8.7,0-13.35-5t-4.65-14.29V78.6h-34v55.57Q57.31,152,39.31,152Z"/><path class="cls-1" d="M110.61,36.7q-19,0-19-17.2,0-17,19-17,9.19,0,14.1,4.4t4.9,12.6q0,8.4-4.9,12.8T110.61,36.7Z"/><path class="cls-1" d="M187.61,153.3a117.36,117.36,0,0,1-18-1.4,67.16,67.16,0,0,1-16.4-4.6q-6.21-2.4-8.1-7a12.89,12.89,0,0,1-.4-9.2,12.31,12.31,0,0,1,5.5-7q4-2.4,9.6-.4a97.3,97.3,0,0,0,15,4.3,68.91,68.91,0,0,0,13,1.3q7.4,0,10.6-2.1a6.34,6.34,0,0,0,3.2-5.5,5.17,5.17,0,0,0-2.1-4.5,15.75,15.75,0,0,0-5.9-2.3l-22.2-3.6q-12.4-2-19.2-9t-6.8-18.2a28.38,28.38,0,0,1,5.8-17.9q5.79-7.5,16.2-11.6a64.56,64.56,0,0,1,23.8-4.1,88.83,88.83,0,0,1,16.4,1.4A62.55,62.55,0,0,1,222,56.5q5.4,2.2,6.9,6.8a13.36,13.36,0,0,1-.2,9.1,12.71,12.71,0,0,1-5.8,6.8q-4.11,2.3-9.9.1a87.24,87.24,0,0,0-11.7-3.8,41.65,41.65,0,0,0-9.5-1.2q-8.2,0-11.6,2.3c-2.27,1.53-3.4,3.37-3.4,5.5q0,5.4,7.4,6.6l22.2,3.8q12.79,2,19.7,8.7t6.9,18.1q0,16.2-12.4,25.1T187.61,153.3Z"/><path class="cls-1" d="M265.2,36.7q-9.4,0-14.5-4.4t-5.1-12.8q0-8.21,5.1-12.6t14.5-4.4q19.8,0,19.8,17,0,8.4-5.1,12.8T265.2,36.7Z"/><path class="cls-1" d="M265.11,153.47q-8.7,0-13.25-5.05t-4.55-14.56V69.94q0-9.49,4.55-14.56t13.25-5.05q8.68,0,13.45,5.05t4.75,14.56v63.92q0,9.49-4.65,14.56T265.11,153.47Z"/><path class="cls-1" d="M339.31,135.88a18,18,0,0,1-17.53,18q-9.19.19-13.92-4.64-4.55-4.65-4.55-13.55V25.86q0-18.21,17.8-18.2,8.68,0,13.45,4.65t4.75,13.55V92.6h.4l24.68-29.93a43,43,0,0,1,9.4-9.1q4.35-2.84,11.83-2.84t11.53,3.64a12.08,12.08,0,0,1,4.15,9.11q.09,5.46-4.35,10.92L375.51,99.88,400.19,131q4.24,5.86,3.54,11a12.55,12.55,0,0,1-5.06,8.49,17.54,17.54,0,0,1-11,3.34q-8.29,0-13-2.93a37.75,37.75,0,0,1-9.61-9.2L339.71,110.6h-.4Z"/><path class="cls-1" d="M452.4,153.6a46.73,46.73,0,0,1-20.34-4.2,33.77,33.77,0,0,1-13.76-11.5,29,29,0,0,1-5-16.7q0-10.61,5.67-16.9t18.21-9q12.55-2.7,33.4-2.7h7.69V89.8q0-7.2-3.75-10.2t-12.85-3a61.5,61.5,0,0,0-11,1.1,80.2,80.2,0,0,0-13.46,3.9q-6.68,2.4-11.13-.2a11.94,11.94,0,0,1-5.76-7.5,13.78,13.78,0,0,1,1-9.8q2.32-4.9,9-7.3a104.25,104.25,0,0,1,17.91-4.7,96.45,96.45,0,0,1,15.08-1.3q24.9,0,36.94,10.6t12,33.4v40.4q0,18-16.6,18-15.78,0-16.79-16a23.77,23.77,0,0,1-9.72,12Q462.32,153.6,452.4,153.6Z"/><path class="cls-1" d="M460.71,130.6a17.56,17.56,0,0,0,12.5-4.8,16.5,16.5,0,0,0,5.1-12.6v-3.6h-7.6q-11.81,0-17.3,2.5t-5.5,7.9a9.82,9.82,0,0,0,3.3,7.6Q454.51,130.6,460.71,130.6Z"/><path class="cls-1" d="M550,152.74q-8-.15-12.3-4.51-4.43-4.53-4.42-13.18V68.71Q533.31,51,550.67,51q15.75,0,17.15,15.16a31.69,31.69,0,0,1,12.07-11.37,36.74,36.74,0,0,1,17.86-4.19A32.82,32.82,0,0,1,615,54.94q7.29,4.39,11.07,13.57a34.75,34.75,0,0,1,13.57-13.27,38.94,38.94,0,0,1,19-4.69q17.16,0,25.44,10.28t8.28,32v42q0,8.89-4.75,13.55T674.11,153q-8.5,0-13.15-4.65t-4.65-13.55v-41q0-8.48-2.56-12.22t-8.47-3.74q-7.29,0-11.13,5.12t-3.84,14.58V134.8q0,8.89-4.65,13.55T612.31,153q-8.7,0-13.35-4.65t-4.65-13.55v-41c0-5.68-.86-9.79-2.58-12.3s-4.57-3.77-8.54-3.77q-7.14,0-11,5.16t-3.87,14.68v37.12A18,18,0,0,1,550,152.74Z"/><path class="cls-1" d="M749.71,153.3q-19.2,0-28.3-10.5t-9.1-32.1V68.61a17.76,17.76,0,0,1,17.36-17.8q9.17-.18,14,4.64,4.65,4.66,4.65,13.35v43q0,14,12.05,14a14.65,14.65,0,0,0,11.48-5.06q4.47-5.06,4.47-13.42V68.61a17.76,17.76,0,0,1,17.36-17.8q9.17-.18,14,4.64,4.65,4.66,4.65,13.35v66.1q0,18-17.2,18-15.4,0-17.4-14.4Q768.11,153.31,749.71,153.3Z"/></g></g></svg>