<svg xmlns="http://www.w3.org/2000/svg" viewBox="0 0 833 165.18"><defs><style>.cls-1{fill:#ee5454;stroke:#ee5454;stroke-width:3px;}.cls-1,.cls-2{stroke-miterlimit:10;}.cls-2{fill:#fff;stroke:#fff;stroke-width:5px;}</style></defs><title>Asset 15</title><g id="Layer_2" data-name="Layer 2"><g id="Layer_1-2" data-name="Layer 1"><rect class="cls-1" x="1.5" y="1.5" width="830" height="162.18"/><path class="cls-2" d="M47.29,158.71q-8.59,0-13.2-4.6t-4.6-13.4v-56h-5.2q-13.39,0-13.4-13.2,0-13,13.4-13h5.2q.8-20.19,11.5-30.4t31.1-12.4l5.6-.6q6.6-.79,10.5,1.5a11.81,11.81,0,0,1,5.3,6,15.13,15.13,0,0,1,.8,7.7,13.18,13.18,0,0,1-3,6.8,9.08,9.08,0,0,1-6.2,3.2l-3.6.2q-9.19.6-12.8,4.3t-3.6,10.7v3h52.2q8.59,0,13.2,5t4.6,14.2v61.6q0,9.41-4.5,14.4t-13.3,5q-8.6,0-13.2-5t-4.6-14.4V84.71H65.09v56Q65.09,158.71,47.29,158.71Zm70.8-116.2q-19,0-19-17.2,0-17,19-17,9.19,0,14.1,4.4t4.9,12.6q0,8.4-4.9,12.8T118.09,42.51Z"/><path class="cls-2" d="M195.09,159.11a117.36,117.36,0,0,1-18-1.4,66.72,66.72,0,0,1-16.4-4.6q-6.19-2.4-8.1-7a12.89,12.89,0,0,1-.4-9.2,12.34,12.34,0,0,1,5.5-7q4-2.4,9.6-.4a96.82,96.82,0,0,0,15,4.3,69,69,0,0,0,13,1.3q7.4,0,10.6-2.1a6.34,6.34,0,0,0,3.2-5.5A5.17,5.17,0,0,0,207,123a15.92,15.92,0,0,0-5.9-2.3l-22.2-3.6q-12.4-2-19.2-9t-6.8-18.2a28.38,28.38,0,0,1,5.8-17.9q5.81-7.5,16.2-11.6a64.6,64.6,0,0,1,23.8-4.1,88.75,88.75,0,0,1,16.4,1.4,63,63,0,0,1,14.4,4.6q5.4,2.2,6.9,6.8a13.36,13.36,0,0,1-.2,9.1,12.67,12.67,0,0,1-5.8,6.8q-4.09,2.31-9.9.1a87.24,87.24,0,0,0-11.7-3.8,41.65,41.65,0,0,0-9.5-1.2q-8.21,0-11.6,2.3t-3.4,5.5q0,5.4,7.4,6.6l22.2,3.8q12.8,2,19.7,8.7t6.9,18.1q0,16.2-12.4,25.1T195.09,159.11Z"/><path class="cls-2" d="M272.69,42.51q-9.4,0-14.5-4.4t-5.1-12.8q0-8.19,5.1-12.6t14.5-4.4q19.8,0,19.8,17,0,8.4-5.1,12.8T272.69,42.51Zm0,116.2q-8.61,0-13.1-5t-4.5-14.4V76.11q0-9.39,4.5-14.4t13.1-5q8.6,0,13.3,5t4.7,14.4v63.2q0,9.41-4.6,14.4T272.69,158.71Z"/><path class="cls-2" d="M328.89,158.71q-8.61,0-13.1-4.6t-4.5-13.4V32.11q0-18,17.6-18,8.6,0,13.3,4.6t4.7,13.4v66h.4l24.4-29.6a42.54,42.54,0,0,1,9.3-9q4.29-2.79,11.7-2.8t11.4,3.6a12,12,0,0,1,4.1,9q.09,5.4-4.3,10.8l-21.2,25.2,24.4,30.8q4.2,5.8,3.5,10.9a12.44,12.44,0,0,1-5,8.4,17.39,17.39,0,0,1-10.9,3.3q-8.2,0-12.9-2.9a37.11,37.11,0,0,1-9.5-9.1l-25-30.8h-.4v24.8Q346.89,158.71,328.89,158.71Z"/><path class="cls-2" d="M460.49,159.11a45.71,45.71,0,0,1-20.1-4.2,33.41,33.41,0,0,1-13.6-11.5,29.22,29.22,0,0,1-4.9-16.7q0-10.59,5.6-16.9t18-9q12.39-2.7,33-2.7h7.6v-2.8q0-7.2-3.7-10.2t-12.7-3a60,60,0,0,0-10.9,1.1,80.2,80.2,0,0,0-13.3,3.9q-6.6,2.4-11-.2a11.92,11.92,0,0,1-5.7-7.5,13.94,13.94,0,0,1,1-9.8q2.29-4.89,8.9-7.3a102.77,102.77,0,0,1,17.7-4.7,95.29,95.29,0,0,1,14.9-1.3q24.6,0,36.5,10.6t11.9,33.4v40.4q0,18-16.4,18-15.6,0-16.6-16a23.7,23.7,0,0,1-9.6,12Q470.28,159.1,460.49,159.11Zm8-23.2a17.56,17.56,0,0,0,12.5-4.8,16.5,16.5,0,0,0,5.1-12.6v-3.6h-7.6q-11.81,0-17.3,2.5t-5.5,7.9a9.82,9.82,0,0,0,3.3,7.6Q462.29,135.91,468.49,135.91Z"/><path class="cls-2" d="M557.89,158.71q-8.61,0-13.1-4.6t-4.5-13.4V74.51q0-17.79,17.4-17.8,15.79,0,17.2,15.2A31.56,31.56,0,0,1,587,60.51a36.79,36.79,0,0,1,17.9-4.2,32.93,32.93,0,0,1,17.3,4.4q7.29,4.41,11.1,13.6A34.77,34.77,0,0,1,646.89,61a39,39,0,0,1,19-4.7q17.19,0,25.5,10.3t8.3,32.1v42q0,8.81-4.7,13.4t-13.3,4.6q-8.4,0-13-4.6t-4.6-13.4v-41q0-8.59-2.6-12.4t-8.6-3.8q-7.41,0-11.3,5.2t-3.9,14.8v37.2q0,8.81-4.6,13.4t-13.2,4.6q-8.61,0-13.2-4.6t-4.6-13.4v-41q0-8.59-2.6-12.4t-8.6-3.8q-7.2,0-11.1,5.2t-3.9,14.8v37.2Q575.89,158.71,557.89,158.71Z"/><path class="cls-2" d="M757.08,159.11q-19.2,0-28.3-10.5t-9.1-32.1v-42q0-17.79,17.8-17.8c5.73,0,10.14,1.54,13.2,4.6s4.6,7.47,4.6,13.2v43q0,14.4,12.4,14.4a15,15,0,0,0,11.8-5.2q4.6-5.19,4.6-13.8V74.51q0-17.79,17.8-17.8c5.74,0,10.13,1.54,13.2,4.6s4.6,7.47,4.6,13.2v66.2q0,18-17.2,18-15.4,0-17.4-14.4Q775.48,159.12,757.08,159.11Z"/></g></g></svg>