<svg viewBox="0 0 209.71 209.71" xmlns="http://www.w3.org/2000/svg"><path d="m0 0h209.71v209.71h-209.71z" fill="#4c544e"/><path d="m156.81 73v3.32c-.17.6-.35 1.19-.51 1.8-1.28 4.86-5.89 9.22-10 9.11-1 0-2.68-.88-2.89-1.66a4.81 4.81 0 0 1 .87-3.73c.75-.95 2.44-1.11 3.41-2 1.17-1 2.55-2.26 2.91-3.65 1.31-5-4.46-10.24-9.94-9.22-5.17 1-8 5.5-7.34 11.75a34.91 34.91 0 0 0 6.68 17.28 59.85 59.85 0 0 1 8.55 16.51c5.24 16.14-1.69 30.72-15.09 37.17a3.06 3.06 0 0 0 -1.16.77c-3 4.2-7 6.69-12.31 6.89-4.87.18-9.74.65-14.6 1.08-2.3.2-4.58.59-6.86.9h-3.36c-1.51-.85-3.4-1.61-2.85-3.77a26.31 26.31 0 0 1 2.37-4.77l-11.27-1.1a11.77 11.77 0 0 0 -.46 1.13c-1.33 4.75-3.21 6.06-8 5.53-.7-.08-1.41-.17-2.12-.24-4.48-.43-5.16-1.7-2.93-5.57a3.66 3.66 0 0 1 -3.15-3.81c0-2 1.52-2.5 3-2.78 2-.36 2.43-1.61 2.67-3.32.4-2.8 1-5.58 1.43-8.38.32-2.08 1.23-4.43.62-6.23a77.66 77.66 0 0 0 -5.17-10.82c-1.71-3.26-3.71-6.37-5.41-9.64a13.67 13.67 0 0 1 -.2-12.74 13.71 13.71 0 0 0 .8-2.47c1.38-5.47 0-7.83-5.38-9.29-1.61-.43-3.05-.95-3.68-2.88a23.58 23.58 0 0 0 -2.44-4.17v-1.44c1.22-2 2.86-3.77 3.59-5.9a13.47 13.47 0 0 1 9.06-9.07c1.48-.47 1.8-1.14 1.33-2.57s-.8-3.16-1.18-4.74h1l1.84 2.06.34-.64c.81.13 1.8 0 2.39.43 2.95 2.11 5.74 4.46 8.7 6.55a24.43 24.43 0 0 1 9.57 14.2c.74 2.74 1.48 5.48 2.34 8.18.92 2.86 2.72 4.75 6 4.86 1.18 0 2.35.33 3.53.37 12 .35 20.16 6.43 25.08 17.1 3.68 8 5 16.57 5.65 25.25.28 3.65.05 7.33.05 11.68a32.17 32.17 0 0 0 9-12.85c1.57-4.16 1.88-8.3 0-12.42-1.47-3.14-3-6.26-4.58-9.33-2.46-4.67-5.24-9.18-7.51-14a31.66 31.66 0 0 1 -2.61-20.3c1.47-7.13 7-11.47 14.79-11.95a14.26 14.26 0 0 1 14.46 9.67c.34 1.3.62 2.61.97 3.86z" fill="#c6f7db"/></svg>