<svg xmlns="http://www.w3.org/2000/svg" viewBox="0 0 809.79 151.8"><defs><style>.cls-1{fill:#ee5454;stroke:#ee5454;stroke-miterlimit:10;}</style></defs><title>Asset 14</title><g id="Layer_2" data-name="Layer 2"><g id="Layer_1-2" data-name="Layer 1"><path class="cls-1" d="M36.9,150.9q-8.59,0-13.2-4.6t-4.6-13.4v-56H13.9Q.51,76.9.5,63.7q0-13,13.4-13h5.2q.79-20.21,11.5-30.4T61.7,7.9l5.6-.6q6.6-.8,10.5,1.5a11.74,11.74,0,0,1,5.3,6,15.12,15.12,0,0,1,.8,7.7,13.22,13.22,0,0,1-3,6.8,9.12,9.12,0,0,1-6.2,3.2l-3.6.2q-9.19.6-12.8,4.3T54.7,47.7v3h52.2q8.59,0,13.2,5t4.6,14.2v61.6q0,9.41-4.5,14.4t-13.3,5q-8.59,0-13.2-5t-4.6-14.4V76.9H54.7v56Q54.7,150.9,36.9,150.9ZM107.7,34.7q-19,0-19-17.2,0-17,19-17,9.19,0,14.1,4.4t4.9,12.6q0,8.4-4.9,12.8T107.7,34.7Z"/><path class="cls-1" d="M184.7,151.3a117.36,117.36,0,0,1-18-1.4,67.16,67.16,0,0,1-16.4-4.6q-6.21-2.4-8.1-7a12.89,12.89,0,0,1-.4-9.2,12.31,12.31,0,0,1,5.5-7q4-2.4,9.6-.4a97.3,97.3,0,0,0,15,4.3,68.91,68.91,0,0,0,13,1.3q7.4,0,10.6-2.1a6.34,6.34,0,0,0,3.2-5.5,5.17,5.17,0,0,0-2.1-4.5,15.75,15.75,0,0,0-5.9-2.3l-22.2-3.6q-12.41-2-19.2-9t-6.8-18.2a28.38,28.38,0,0,1,5.8-17.9q5.79-7.5,16.2-11.6a64.56,64.56,0,0,1,23.8-4.1,88.83,88.83,0,0,1,16.4,1.4,62.55,62.55,0,0,1,14.4,4.6q5.4,2.2,6.9,6.8a13.36,13.36,0,0,1-.2,9.1,12.67,12.67,0,0,1-5.8,6.8q-4.11,2.3-9.9.1a87.24,87.24,0,0,0-11.7-3.8,41.65,41.65,0,0,0-9.5-1.2q-8.21,0-11.6,2.3c-2.27,1.53-3.4,3.37-3.4,5.5q0,5.4,7.4,6.6l22.2,3.8q12.8,2,19.7,8.7t6.9,18.1q0,16.2-12.4,25.1T184.7,151.3Z"/><path class="cls-1" d="M262.3,34.7q-9.41,0-14.5-4.4t-5.1-12.8q0-8.21,5.1-12.6T262.3.5q19.8,0,19.8,17,0,8.4-5.1,12.8T262.3,34.7Zm0,116.2q-8.61,0-13.1-5t-4.5-14.4V68.3q0-9.4,4.5-14.4t13.1-5q8.59,0,13.3,5t4.7,14.4v63.2q0,9.41-4.6,14.4T262.3,150.9Z"/><path class="cls-1" d="M318.49,150.9q-8.6,0-13.1-4.6t-4.5-13.4V24.3q0-18,17.6-18,8.61,0,13.3,4.6t4.7,13.4v66h.4l24.4-29.6a43,43,0,0,1,9.3-9q4.31-2.81,11.7-2.8t11.4,3.6a11.89,11.89,0,0,1,4.1,9q.1,5.4-4.3,10.8l-21.2,25.2,24.4,30.8q4.2,5.8,3.5,10.9a12.37,12.37,0,0,1-5,8.4,17.37,17.37,0,0,1-10.9,3.3q-8.19,0-12.9-2.9a37.44,37.44,0,0,1-9.5-9.1l-25-30.8h-.4v24.8Q336.49,150.9,318.49,150.9Z"/><path class="cls-1" d="M450.09,151.3a45.71,45.71,0,0,1-20.1-4.2,33.48,33.48,0,0,1-13.6-11.5,29.24,29.24,0,0,1-4.9-16.7q0-10.61,5.6-16.9t18-9q12.41-2.7,33-2.7h7.6V87.5q0-7.2-3.7-10.2t-12.7-3a60.15,60.15,0,0,0-10.9,1.1,78.85,78.85,0,0,0-13.3,3.9q-6.6,2.4-11-.2a12,12,0,0,1-5.7-7.5,14,14,0,0,1,1-9.8q2.31-4.9,8.9-7.3A101.86,101.86,0,0,1,446,49.8a94.2,94.2,0,0,1,14.9-1.3q24.6,0,36.5,10.6t11.9,33.4v40.4q0,18-16.4,18-15.6,0-16.6-16a23.6,23.6,0,0,1-9.6,12Q459.9,151.3,450.09,151.3Zm8-23.2a17.54,17.54,0,0,0,12.5-4.8,16.5,16.5,0,0,0,5.1-12.6v-3.6h-7.6q-11.79,0-17.3,2.5t-5.5,7.9a9.82,9.82,0,0,0,3.3,7.6Q451.89,128.1,458.09,128.1Z"/><path class="cls-1" d="M547.49,150.9q-8.6,0-13.1-4.6t-4.5-13.4V66.7q0-17.81,17.4-17.8,15.8,0,17.2,15.2a31.63,31.63,0,0,1,12.1-11.4,36.79,36.79,0,0,1,17.9-4.2,32.91,32.91,0,0,1,17.3,4.4q7.31,4.4,11.1,13.6a34.77,34.77,0,0,1,13.6-13.3,39,39,0,0,1,19-4.7q17.21,0,25.5,10.3t8.3,32.1v42q0,8.81-4.7,13.4t-13.3,4.6q-8.4,0-13-4.6t-4.6-13.4v-41q0-8.59-2.6-12.4t-8.6-3.8q-7.4,0-11.3,5.2t-3.9,14.8v37.2q0,8.81-4.6,13.4t-13.2,4.6q-8.6,0-13.2-4.6t-4.6-13.4v-41q0-8.59-2.6-12.4t-8.6-3.8q-7.2,0-11.1,5.2t-3.9,14.8v37.2Q565.49,150.9,547.49,150.9Z"/><path class="cls-1" d="M746.69,151.3q-19.2,0-28.3-10.5t-9.1-32.1v-42q0-17.81,17.8-17.8,8.6,0,13.2,4.6t4.6,13.2v43q0,14.4,12.4,14.4a15,15,0,0,0,11.8-5.2q4.6-5.2,4.6-13.8V66.7q0-17.81,17.8-17.8,8.6,0,13.2,4.6t4.6,13.2v66.2q0,18-17.2,18-15.4,0-17.4-14.4Q765.09,151.31,746.69,151.3Z"/></g></g></svg>