<svg viewBox="0 0 210.21 177.26" xmlns="http://www.w3.org/2000/svg"><rect fill="#5b5d6e" height="176.76" rx="24.16" stroke="#5b5d6e" stroke-miterlimit="10" stroke-width=".5" width="209.71" x=".25" y=".25"/><rect fill="#ff0" height="160.87" rx="14.61" width="190.45" x="8.84" y="8.83"/><path d="m122.81 107.28-20.73 16.21a23.82 23.82 0 0 1 -33.45-4.09 23.83 23.83 0 0 1 4.09-33.4l20.73-16.26-11.08-14.17-22 17.24a41.81 41.81 0 0 0 -7.18 58.7 41.82 41.82 0 0 0 58.71 7.18l22-17.24z" fill="#5b5d6e"/><path d="m86.25 47.92h17.99v17.99h-17.99z" fill="#ff6464" transform="matrix(.61607399 .78768829 -.78768829 .61607399 81.4 -53.17)"/><path d="m126.44 99.83h17.99v17.99h-17.99z" fill="#a5d76e" transform="matrix(.61607399 .78768829 -.78768829 .61607399 137.73 -64.9)"/><g fill="#5b5d6e"><path d="m113.58 29.22-9.8 7.66"/><path d="m111.81 27.45-9.81 7.66c-2.53 2 1 5.5 3.53 3.54l9.8-7.66c2.54-2-1-5.5-3.53-3.54z"/><path d="m126.88 31.21-17.13 13.39"/><path d="m125.11 29.44-17.11 13.39c-2.53 2 1 5.5 3.54 3.54l17.1-13.37c2.54-2-1-5.49-3.53-3.53z"/><path d="m126.07 45.19-9.84 7.7"/><path d="m124.3 43.43-9.83 7.69c-2.54 2 1 5.5 3.53 3.54l9.84-7.7c2.53-2-1-5.49-3.54-3.53z"/><path d="m151.57 83.33-9.8 7.67"/><path d="m149.81 81.57-9.81 7.66c-2.54 2 1 5.5 3.53 3.54l9.8-7.67c2.53-2-1-5.49-3.53-3.53z"/><path d="m164.87 85.32-17.12 13.4"/><path d="m163.11 83.55-17.11 13.45c-2.53 2 1 5.49 3.54 3.53l17.12-13.39c2.53-2-1-5.5-3.53-3.54z"/><path d="m164.07 99.31-9.84 7.7"/><path d="m162.3 97.54-9.84 7.7c-2.53 2 1 5.49 3.54 3.53l9.84-7.69c2.53-2-1-5.5-3.54-3.54z"/></g></svg>