<svg xmlns="http://www.w3.org/2000/svg" viewBox="0 0 209.71 176.76"><title>Asset 30</title><g id="Layer_2" data-name="Layer 2"><g id="Layer_1-2" data-name="Layer 1"><rect width="209.71" height="176.76" rx="24.16" fill="#082947"/><rect x="9.63" y="8.21" width="190.45" height="160.87" rx="12.16" fill="#e6f4eb" stroke="#082947" stroke-miterlimit="10"/><path d="M39.28,36.31l114.79-.56,16.36-.08c6.43,0,6.44-10,0-10l-114.78.56-16.37.08c-6.43,0-6.44,10,0,10Z" fill="#082947"/><line x1="104.86" y1="31.31" x2="104.86" y2="57.84" fill="none" stroke="#082947" stroke-miterlimit="10" stroke-width="4"/><circle cx="104.28" cy="74.06" r="25.89" fill="none" stroke="#082947" stroke-miterlimit="10" stroke-width="4"/><line x1="78.39" y1="73.06" x2="78.39" y2="116.95" fill="#082947" stroke="#082947" stroke-miterlimit="10" stroke-width="3"/><path d="M68.18,108.7a30,30,0,0,1,3,1.6c1,.59,1.93,1.19,2.85,1.83a64.08,64.08,0,0,1,5.3,4.11l-2,0a63,63,0,0,1,5-4.09c.86-.64,1.76-1.25,2.66-1.85a30.68,30.68,0,0,1,2.86-1.63A30.84,30.84,0,0,1,86,111.4c-.67.85-1.35,1.69-2.07,2.5a62.89,62.89,0,0,1-4.51,4.58l-1,.89-1-.85a62.33,62.33,0,0,1-4.9-4.58c-.79-.8-1.53-1.65-2.27-2.5A31.2,31.2,0,0,1,68.18,108.7Z" fill="#082947"/><line x1="130.55" y1="71.43" x2="130.55" y2="128.56" fill="#082947" stroke="#082947" stroke-miterlimit="10" stroke-width="3"/><path d="M149.5,146.23h-37q2.58-9.48,5.17-19h26.36Z" fill="#ffcd75" stroke="#082947" stroke-miterlimit="10" stroke-width="3"/><path d="M119.79,68.14A16.1,16.1,0,0,0,113.4,60c-6.18-3.95-12.8-1.95-13.76-1.64A15.83,15.83,0,0,0,89.9,78.55a16.39,16.39,0,0,0,8.77,9.37,16.15,16.15,0,0,0,11.38.37A16.38,16.38,0,0,0,117.36,83a16.79,16.79,0,0,0,3.53-8.81" fill="#6ea9d7" stroke="#082947" stroke-miterlimit="10" stroke-width="3"/></g></g></svg>