<svg viewBox="0 0 209.71 176.76" xmlns="http://www.w3.org/2000/svg"><path d="m149.65 76.44h-35.5a1.52 1.52 0 0 0 -1.3 2.26l24.15 40.44a1.5 1.5 0 0 0 2.59-1.51l-24.15-40.44-1.29 2.25h35.5a1.5 1.5 0 0 0 0-3z"/><path d="m114.64 57.89 5.45-10c.93-1.7-1.66-3.21-2.59-1.52l-5.45 10c-.92 1.7 1.67 3.21 2.59 1.52z"/><rect fill="#57545c" height="176.76" rx="24.16" width="209.71"/><rect fill="#afadb2" height="160.87" rx="12.16" width="190.45" x="9.63" y="8.21"/><circle cx="107.63" cy="87.5" fill="#57545c" r="52.94"/><path d="m159.08 87.5c-.28 21.69-13.91 41.5-34.61 48.62a51.45 51.45 0 0 1 -60.92-75.12 51.91 51.91 0 0 1 54.52-23.87c23.83 5 40.7 26.24 41 50.39a1.5 1.5 0 0 0 3 0 54.44 54.44 0 0 0 -96.4-34.7 54.44 54.44 0 0 0 51.88 88.18c25.74-4.67 44.19-27.65 44.53-53.53a1.5 1.5 0 0 0 -3 .03z"/><circle cx="107.97" cy="88.05" fill="#d7d5d9" r="42.89"/><path d="m149.36 88.05c-.28 17.24-10.86 33-27.24 38.9a41.39 41.39 0 1 1 -6.4-79.57c19.52 3.72 33.32 21 33.64 40.67 0 1.92 3 1.93 3 0a44.38 44.38 0 0 0 -78.8-28 44.38 44.38 0 0 0 43 71.58c20.81-4 35.5-22.62 35.84-43.55a1.5 1.5 0 0 0 -3.04-.03z"/><path d="m153.48 61c.6 1.15 14.84 29.56-.76 54.24-13.36 21.15-42.7 30.2-69.33 19.33 5.61-.57 32.89-3.76 52.61-27.57a78 78 0 0 0 17.48-46z" opacity=".15" stroke="#000" stroke-miterlimit="10"/><path d="m114.15 77.94h-12.35l-6.18 10.7 6.18 10.7h12.35l6.17-10.7z" fill="#afadb2"/><path d="m114.15 76.44h-12.36a1.5 1.5 0 0 0 -1.29.75l-3.57 6.18c-.75 1.31-2.81 3.64-2.81 5.27s1.87 3.64 2.57 4.85l3.81 6.6a1.5 1.5 0 0 0 1.29.75h12.36a1.5 1.5 0 0 0 1.29-.75l3.56-6.18c.76-1.31 2.81-3.64 2.81-5.27s-1.81-3.64-2.56-4.85l-3.81-6.6a1.5 1.5 0 0 0 -2.59 1.51l5.15 8.86c.29.5.57 1 .87 1.51 0-.08.86-1.31-.23-.47s-1.77 3.06-2.43 4.21c-.76 1.32-2.72 3.51-2.92 5-.16 1.3-.47 0 .65 0h-8.32c-.84 0-4.31-.36-3.12.33s-.87-2.17-1.28-2.88l-3.22-5.54-.86-1.51c0 .08-.87 1.31.22.47s2-3.42 2.67-4.63 2.49-3.22 2.68-4.63-.41 0-.5 0h1.73 10.24a1.5 1.5 0 0 0 -.03-2.98z"/><path d="m119 87.88-22.9 41c-.94 1.68 1.65 3.2 2.59 1.51l22.9-41c.94-1.69-1.65-3.2-2.59-1.52z"/><path d="m66.6 100.84 47.7.08a1.5 1.5 0 0 0 0-3l-47.7-.08a1.5 1.5 0 0 0 0 3z"/><path d="m103.09 98.58-23.87-41.88a1.5 1.5 0 0 0 -2.59 1.51l23.87 41.88a1.5 1.5 0 0 0 2.59-1.51z"/><path d="m96.91 89.4 12.94-23.67c.93-1.69-1.66-3.21-2.59-1.51l-12.94 23.66c-.92 1.7 1.67 3.21 2.59 1.52z"/><path d="m92.5 37.58 15.13-1.96" fill="none" stroke="#57545c" stroke-miterlimit="10" stroke-width="7"/><path d="m92.89 36 14.11-2c1.91-.25 1.1-3.14-.8-2.89l-14.1 1.95c-1.91.26-1.1 3.15.79 2.9z" fill="#afadb2"/><path d="m149.65 76.44h-47.86a1.5 1.5 0 0 0 0 3h47.86a1.5 1.5 0 0 0 0-3z"/><path d="m112.85 78.7 24.15 40.44a1.5 1.5 0 0 0 2.59-1.51l-24.15-40.44a1.5 1.5 0 0 0 -2.59 1.51z"/><path d="m115.13 57.47 6.21-9.74c1-1.63-1.55-3.14-2.59-1.51l-6.21 9.78c-1 1.63 1.55 3.13 2.59 1.51z"/></svg>