<svg viewBox="0 0 181.03 207.71" xmlns="http://www.w3.org/2000/svg" xmlns:xlink="http://www.w3.org/1999/xlink"><clipPath id="a"><path clip-rule="evenodd" d="m.65 207.06h179.73v-206.41h-179.73z"/></clipPath><path d="m3.63 14.28a10.65 10.65 0 0 1 10.65-10.65l134.16 2.74c17.79 15.56 8.82 6.6 29 26.22v160.84a10.66 10.66 0 0 1 -10.65 10.66h-152.51a10.66 10.66 0 0 1 -10.65-10.66z" fill="none" stroke="#bfbfbf" stroke-miterlimit="8" stroke-width="7.25"/><g clip-path="url(#a)"><path d="m148.88 6.38-.13 28.16" fill="none" stroke="#bfbfbf" stroke-miterlimit="8" stroke-width="5"/><g clip-path="url(#a)"><path d="m177.39 32.27-28.16-.12" fill="none" stroke="#bfbfbf" stroke-miterlimit="8" stroke-width="5"/><g clip-path="url(#a)"><path d="m43.9 64.73a1.48 1.48 0 0 1 1.48-1.49h100.88a1.49 1.49 0 0 1 1.49 1.49 1.49 1.49 0 0 1 -1.49 1.48h-100.88a1.48 1.48 0 0 1 -1.48-1.48z" fill="#1d9a78" fill-rule="evenodd"/><path d="m43.9 64.73a1.48 1.48 0 0 1 1.48-1.49h100.88a1.49 1.49 0 0 1 1.49 1.49 1.49 1.49 0 0 1 -1.49 1.48h-100.88a1.48 1.48 0 0 1 -1.48-1.48z" fill="none" stroke="#bfbfbf" stroke-miterlimit="8"/><g clip-path="url(#a)"><path d="m43.7 92.89a1.48 1.48 0 0 1 1.49-1.48h101a1.49 1.49 0 0 1 1.49 1.48 1.49 1.49 0 0 1 -1.49 1.49h-101a1.48 1.48 0 0 1 -1.49-1.49z" fill="#1d9a78" fill-rule="evenodd"/><path d="m43.7 92.89a1.48 1.48 0 0 1 1.49-1.48h101a1.49 1.49 0 0 1 1.49 1.48 1.49 1.49 0 0 1 -1.49 1.49h-101a1.48 1.48 0 0 1 -1.49-1.49z" fill="none" stroke="#bfbfbf" stroke-miterlimit="8"/><g clip-path="url(#a)"><path d="m43.6 120.27a1.49 1.49 0 0 1 1.49-1.49h100.91a1.49 1.49 0 0 1 1.49 1.49 1.49 1.49 0 0 1 -1.49 1.49h-100.91a1.49 1.49 0 0 1 -1.49-1.49z" fill="#1d9a78" fill-rule="evenodd"/><path d="m43.6 120.27a1.49 1.49 0 0 1 1.49-1.49h100.91a1.49 1.49 0 0 1 1.49 1.49 1.49 1.49 0 0 1 -1.49 1.49h-100.91a1.49 1.49 0 0 1 -1.49-1.49z" fill="none" stroke="#bfbfbf" stroke-miterlimit="8"/><g clip-path="url(#a)"><path d="m44.39 147.55a1.49 1.49 0 0 1 1.49-1.49h100.87a1.49 1.49 0 0 1 1.49 1.49 1.49 1.49 0 0 1 -1.49 1.49h-100.87a1.49 1.49 0 0 1 -1.49-1.49z" fill="#1d9a78" fill-rule="evenodd"/><path d="m44.39 147.55a1.49 1.49 0 0 1 1.49-1.49h100.87a1.49 1.49 0 0 1 1.49 1.49 1.49 1.49 0 0 1 -1.49 1.49h-100.87a1.49 1.49 0 0 1 -1.49-1.49z" fill="none" stroke="#bfbfbf" stroke-miterlimit="8"/></g></g></g></g></g></g></svg>