<svg viewBox="0 0 209.71 176.76" xmlns="http://www.w3.org/2000/svg"><rect fill="#cb4e44" height="176.76" rx="24.16" width="209.71"/><rect fill="#ff0" height="160.87" rx="12.16" width="190.45" x="9.63" y="8.21"/><circle cx="102.08" cy="112.97" fill="#cb4e44" r="15.43"/><path d="m102.08 112.97v-64.78" fill="#cb4e44"/><path d="m107.08 113v-64.81c0-6.44-10-6.45-10 0v64.81c0 6.43 10 6.44 10 0z" fill="#cb4e44"/><g fill="#fff"><path d="m87.8 93.06c-11.94 9.81-12.69 27.91-2.1 39 5 5.24 13.88 6.08 20.72 5s11.11-3.58 14.85-9.17a24.86 24.86 0 0 0 1.81-24.39c-1.44-3-3.51-5.31-5.64-7.82-.26-.31-.86-.6-1.06-1-.41-.74.26-.24.12-.67-1-3 0-8.44 0-11.69v-29.17c0-3.35.88-8.44 0-11.69-1.51-5.57-9.53-8.7-14.72-8.68a17.78 17.78 0 0 0 -11.7 4.67c-3.48 3.11-3 5.42-3 10.15v47.23c0 3.22 5 3.22 5 0v-46.24c0-4.24-.91-5.93 2.58-8.44a12.28 12.28 0 0 1 11.44-1.57 13.23 13.23 0 0 1 3.83 2.22 6.62 6.62 0 0 1 1.17 1.09c.89 1.36.12.15.41 1.52.88 4.15 0 9.37 0 13.63v31.17c0 3.13-1 7.27 1 9.8 3.77 4.78 7.5 8.08 7.92 14.78.38 6-2.33 13.37-7.44 17-5.34 3.79-15.41 3.55-21.12.72-5.87-2.94-9.03-11.51-8.8-17.72a22.44 22.44 0 0 1 8.27-16.19c2.49-2.04-1.07-5.6-3.54-3.54z"/><path d="m123 88.08h9.64c3.22 0 3.22-5 0-5h-9.64c-3.22 0-3.22 5 0 5z"/><path d="m122.64 76.34h16.27c3.22 0 3.22-5 0-5h-16.27c-3.21 0-3.22 5 0 5z"/><path d="m123.57 64.65h21.93c3.22 0 3.22-5 0-5h-21.93c-3.22 0-3.22 5 0 5z"/><path d="m123.57 53.06h27.71c3.22 0 3.23-5 0-5h-27.71c-3.22 0-3.22 5 0 5z"/></g></svg>