<svg viewBox="0 0 275 275" xmlns="http://www.w3.org/2000/svg"><circle cx="137.5" cy="137.5" fill="#bfbfbf" r="137.5"/><path d="m120.75 91h-72v-34.59h71c8.75 2.46 14.46 10.59 13.76 19a18.35 18.35 0 0 1 -12.76 15.59z" fill="#fff"/><path d="m120.75 134.8h-72v-34.6h71c8.75 2.46 14.46 10.6 13.76 19a18.35 18.35 0 0 1 -12.76 15.6z" fill="#fff"/><path d="m120.75 178.59h-72v-34.59h71c8.75 2.46 14.46 10.59 13.76 19a18.34 18.34 0 0 1 -12.76 15.59z" fill="#fff"/><path d="m120.75 222.39h-72v-34.59h71c8.75 2.46 14.46 10.59 13.76 19a18.35 18.35 0 0 1 -12.76 15.59z" fill="#fff"/><g fill="#666"><path d="m63.3 77.64-2.1 6.36h-2.7l6.87-20.22h3.15l6.9 20.22h-2.79l-2.16-6.36zm6.63-2-2-5.82c-.45-1.32-.75-2.52-1-3.69h-.06c-.3 1.2-.63 2.43-1 3.66l-2 5.85z"/><path d="m77.67 82.44a1.77 1.77 0 0 1 1.8-1.89 1.89 1.89 0 1 1 -1.8 1.89z"/><path d="m60 107.05a25.29 25.29 0 0 1 4.77-.42c2.61 0 4.29.45 5.55 1.47a4.24 4.24 0 0 1 1.68 3.57 4.8 4.8 0 0 1 -3.42 4.44v.06a5.21 5.21 0 0 1 4.17 5.07 5.45 5.45 0 0 1 -1.71 4.05c-1.41 1.29-3.69 1.89-7 1.89a30.51 30.51 0 0 1 -4-.24zm2.61 8.28h2.39c2.76 0 4.38-1.44 4.38-3.39 0-2.37-1.8-3.3-4.44-3.3a11.2 11.2 0 0 0 -2.31.18zm0 9.69a14 14 0 0 0 2.19.12c2.7 0 5.19-1 5.19-3.93 0-2.76-2.37-3.9-5.22-3.9h-2.13z"/><path d="m75.18 125.44a1.77 1.77 0 0 1 1.8-1.89 1.89 1.89 0 1 1 -1.8 1.89z"/><path d="m74.16 170.34a13 13 0 0 1 -5.34 1c-5.7 0-10-3.6-10-10.23 0-6.33 4.29-10.62 10.56-10.62a10.84 10.84 0 0 1 4.8.9l-.63 2.13a9.51 9.51 0 0 0 -4.08-.84c-4.74 0-7.89 3-7.89 8.34 0 5 2.85 8.13 7.77 8.13a10.45 10.45 0 0 0 4.26-.84z"/><path d="m76.71 169.44a1.77 1.77 0 0 1 1.8-1.89 1.89 1.89 0 1 1 -1.8 1.89z"/><path d="m60 195.05a37.38 37.38 0 0 1 5.55-.42c3.75 0 6.42.87 8.19 2.52a9.31 9.31 0 0 1 2.85 7.26 10.69 10.69 0 0 1 -2.91 7.86c-1.89 1.89-5 2.91-8.94 2.91a42.13 42.13 0 0 1 -4.74-.24zm2.61 17.88a16.48 16.48 0 0 0 2.64.15c5.58 0 8.61-3.12 8.61-8.58 0-4.77-2.67-7.8-8.19-7.8a14.83 14.83 0 0 0 -3.06.27z"/><path d="m78.27 213.44a1.77 1.77 0 0 1 1.8-1.89 1.89 1.89 0 1 1 -1.8 1.89z"/></g><path d="m229 73.07a23.92 23.92 0 0 1 5.29 12.69 42.16 42.16 0 0 1 -.85 13.9 45.31 45.31 0 0 1 -1.3 4.83q-.78 2.39-1.64 4.8a52.83 52.83 0 0 1 -4.12 10.71 70.71 70.71 0 0 1 -6.13 9.71q-3.83 5.15-8.1 10t-8.12 10c-1.29 1.67-2.5 3.35-3.62 5.06s-2.18 3.51-3.18 5.39c-.5.94-1 1.84-1.39 2.69a28.67 28.67 0 0 0 -1.2 2.78c-.37 1-.71 2-1 3a11.2 11.2 0 0 1 -1.26 2.81 7.12 7.12 0 0 1 -4.23 3.05 17.17 17.17 0 0 1 -6.27.84 13.3 13.3 0 0 1 -5.81-1.57 5.42 5.42 0 0 1 -3-4.16 7.91 7.91 0 0 1 .15-3.19 26.16 26.16 0 0 1 1.06-3.37q.64-1.7 1.41-3.27c.51-1.05 1-2 1.43-2.79 1-1.88 2.08-3.7 3.23-5.48s2.37-3.49 3.67-5.16q3.57-4.57 7.36-9c2.53-2.93 5-5.93 7.37-9s4.62-6.19 6.7-9.45a57.4 57.4 0 0 0 5.25-10.34 47.18 47.18 0 0 0 3-12.55 62.92 62.92 0 0 0 0-12.87 45.91 45.91 0 0 0 -2.23-10.56c-.44-.58-.84-1.15-1.21-1.71a8.51 8.51 0 0 0 -1.26-1.46.42.42 0 0 1 -.22-.15s-.09-.1-.22-.16l-3.16 1.84a16.16 16.16 0 0 0 -3 2.26 31.1 31.1 0 0 0 -2.57 2.74c-.77.94-1.55 1.93-2.33 3-1.5 2.07-2.88 4.07-4.17 6.2a57 57 0 0 0 -3.43 6.44 64.84 64.84 0 0 0 -4.57 14.43 101.6 101.6 0 0 0 -1.75 15.12.14.14 0 0 1 -.09.2c-.09 0-.17 0-.24-.23a50.47 50.47 0 0 1 .6-15.81 69.09 69.09 0 0 1 4.85-15.18 62 62 0 0 1 3.8-7.1 75.21 75.21 0 0 1 4.64-6.65c.21-.29.45-.63.74-1a8.69 8.69 0 0 1 1-1.12 35.92 35.92 0 0 0 -4 3.52q-1.85 1.9-3.53 3.82a42 42 0 0 0 -5.84 9 50.35 50.35 0 0 0 -3.66 10.07 47.48 47.48 0 0 0 -1.34 11.75c0 1.08 0 2.11.06 3.11s.07 2 0 3.11c0 .54-.07 1.31-.17 2.31a2.2 2.2 0 0 0 .54 2 1.09 1.09 0 0 1 .19 1.37 4.41 4.41 0 0 1 -3.63 2.5 13.15 13.15 0 0 1 -4.64-.17 18.27 18.27 0 0 1 -4.74-1.5 10.14 10.14 0 0 1 -3.77-3.15 14 14 0 0 1 -3.21-7 43 43 0 0 1 -.42-7.71 45 45 0 0 1 2.28-12.56 54.5 54.5 0 0 1 5.33-11.7 49.65 49.65 0 0 1 8.08-10 49.06 49.06 0 0 1 10.3-7.59 42.24 42.24 0 0 1 7.08-2.93 39.73 39.73 0 0 1 7.9-1.62 23.73 23.73 0 0 1 7.82.49 18.67 18.67 0 0 1 6.93 3.24 7.23 7.23 0 0 1 1.68 1.41 16.75 16.75 0 0 1 5.44 4.2 26.42 26.42 0 0 1 3.8 5.79 39.57 39.57 0 0 1 3.51 9.68 59 59 0 0 1 1.34 10.33 39.42 39.42 0 0 0 .52-11.76 22.61 22.61 0 0 0 -4.09-10.82c-.07-.19-.07-.32 0-.41s.2-.09.36.06zm-48.88 108.48a7.45 7.45 0 0 1 4.86-1 9 9 0 0 1 4.58 1.72 9.6 9.6 0 0 1 2.53 3.06 14.8 14.8 0 0 1 1.31 3.68 22.67 22.67 0 0 1 .47 4c0 1.37.08 2.7.13 4s.16 2.54.32 3.82.32 2.53.47 3.76.45 2.32.74 3.65a8.21 8.21 0 0 1 0 3.79 2.94 2.94 0 0 1 -1.25 2.64 12.22 12.22 0 0 1 -2.67 1.41 18.14 18.14 0 0 1 -8.34.91 12.23 12.23 0 0 1 -4-1.22 7.66 7.66 0 0 1 -3-2.73 9.35 9.35 0 0 1 -1.39-4.3c-.15-1.66-.28-3.21-.4-4.66a66.85 66.85 0 0 1 -.45-7.55 33.86 33.86 0 0 1 .87-8.52 10 10 0 0 1 5.22-6.46z" fill="#fff"/></svg>