<svg xmlns="http://www.w3.org/2000/svg" viewBox="0 0 209.71 176.76"><title>Asset 31</title><g id="Layer_2" data-name="Layer 2"><g id="Layer_1-2" data-name="Layer 1"><rect width="209.71" height="176.76" rx="24.16" fill="#48464c"/><rect x="9.63" y="7.21" width="190.45" height="160.87" rx="12.16" fill="#333"/><path d="M55.26,133.2l-23-36.3-.54,2,104-65.79,14.76-9.34-2.05-.54,23,36.3.54-2.06L68,123.32l-14.76,9.34c-1.63,1-.12,3.63,1.52,2.59l104-65.8,14.77-9.34a1.53,1.53,0,0,0,.54-2l-23-36.3a1.52,1.52,0,0,0-2.05-.53L45,87,30.25,96.36a1.53,1.53,0,0,0-.54,2.06l23,36.29C53.7,136.34,56.3,134.84,55.26,133.2Z" fill="#c6f7db"/><line x1="162.11" y1="53.85" x2="166.66" y2="61.04" fill="none" stroke="#c6f7db" stroke-miterlimit="10"/><line x1="157.4" y1="56.83" x2="161.95" y2="64.03" fill="none" stroke="#c6f7db" stroke-miterlimit="10"/><line x1="152.68" y1="59.82" x2="157.23" y2="67.01" fill="none" stroke="#c6f7db" stroke-miterlimit="10"/><line x1="147.97" y1="62.8" x2="152.52" y2="69.99" fill="none" stroke="#c6f7db" stroke-miterlimit="10"/><line x1="138.55" y1="68.76" x2="143.09" y2="75.95" fill="none" stroke="#c6f7db" stroke-miterlimit="10"/><line x1="133.83" y1="71.74" x2="138.38" y2="78.93" fill="none" stroke="#c6f7db" stroke-miterlimit="10"/><line x1="129.28" y1="74.63" x2="133.83" y2="81.82" fill="none" stroke="#c6f7db" stroke-miterlimit="10"/><line x1="124.56" y1="77.61" x2="129.11" y2="84.8" fill="none" stroke="#c6f7db" stroke-miterlimit="10"/><line x1="115.14" y1="83.57" x2="119.69" y2="90.76" fill="none" stroke="#c6f7db" stroke-miterlimit="10"/><line x1="110.43" y1="86.55" x2="114.98" y2="93.74" fill="none" stroke="#c6f7db" stroke-miterlimit="10"/><line x1="105.71" y1="89.53" x2="110.26" y2="96.72" fill="none" stroke="#c6f7db" stroke-miterlimit="10"/><line x1="101" y1="92.52" x2="105.55" y2="99.71" fill="none" stroke="#c6f7db" stroke-miterlimit="10"/><line x1="91.58" y1="98.48" x2="96.12" y2="105.67" fill="none" stroke="#c6f7db" stroke-miterlimit="10"/><line x1="86.86" y1="101.46" x2="91.41" y2="108.65" fill="none" stroke="#c6f7db" stroke-miterlimit="10"/><line x1="82.15" y1="104.44" x2="86.7" y2="111.63" fill="none" stroke="#c6f7db" stroke-miterlimit="10"/><line x1="77.44" y1="107.42" x2="81.99" y2="114.61" fill="none" stroke="#c6f7db" stroke-miterlimit="10"/><path d="M68.64,107.49l6.9,10.9c.48.76,3.3-.15,2.7-1.1l-6.9-10.91c-.48-.76-3.3.15-2.7,1.11Z" fill="#c6f7db"/><line x1="68.01" y1="113.39" x2="72.56" y2="120.58" fill="none" stroke="#c6f7db" stroke-miterlimit="10"/><line x1="63.3" y1="116.37" x2="67.85" y2="123.56" fill="none" stroke="#c6f7db" stroke-miterlimit="10"/><line x1="58.59" y1="119.35" x2="63.14" y2="126.54" fill="none" stroke="#c6f7db" stroke-miterlimit="10"/><line x1="54.03" y1="122.23" x2="58.58" y2="129.42" fill="none" stroke="#c6f7db" stroke-miterlimit="10"/><path d="M92.59,92.34l6.9,10.9c.48.76,3.3-.15,2.7-1.11l-6.9-10.9c-.48-.76-3.31.15-2.7,1.11Z" fill="#c6f7db"/><path d="M116.15,77.43l6.9,10.9c.48.76,3.3-.15,2.7-1.1l-6.9-10.91c-.48-.76-3.3.15-2.7,1.11Z" fill="#c6f7db"/><path d="M139.52,62.56l6.9,10.91c.48.76,3.31-.15,2.7-1.11l-6.9-10.9c-.48-.76-3.3.15-2.7,1.1Z" fill="#c6f7db"/><path d="M69.88,103.37l-1.22.76-1.22.76a3,3,0,0,1-.64.33.56.56,0,0,1-.61-.27c-.26-.42-.06-.83.58-1.23l.3-.18.26-.15-.6-.84c-.28-.36-.48-.64-.6-.83q-.5-.78-1.35-2.46c-.57-1.1-1-1.92-1.36-2.46a3.61,3.61,0,0,1-.65,1.3.75.75,0,0,1-1-.23c-.12-.19-.09-.54.09-1,.13-.3.28-.74.47-1.34A1.78,1.78,0,0,1,63,94.3c.28-.17.51-.1.71.21A4.43,4.43,0,0,1,64,95a3.28,3.28,0,0,0,.23.44c.08.14.22.34.4.61s.33.46.41.6a23.84,23.84,0,0,1,1.17,2.18c.48,1,.87,1.71,1.16,2.18.15.23.35.51.59.83s.44.59.58.8l.64-.41a.69.69,0,0,1,.54-.1.67.67,0,0,1,.43.31.68.68,0,0,1,.1.53A.72.72,0,0,1,69.88,103.37Z" fill="none" stroke="#c6f7db" stroke-miterlimit="10"/><path d="M94.9,87.66a2,2,0,0,1-.49.18,1.68,1.68,0,0,0-.49.17c-.21.13-.51.34-.92.63s-.71.5-.92.63a7,7,0,0,0-.67.51,6.58,6.58,0,0,1-.67.5,1,1,0,0,1-.21.1l-.22.1a.62.62,0,0,1-.81-.06,2.91,2.91,0,0,1-.54-.69,3.91,3.91,0,0,1-.66-2.8,16.16,16.16,0,0,1,1-2.68,8.12,8.12,0,0,0,.59-1.68,2.41,2.41,0,0,0-.34-1.72,1,1,0,0,0-1-.38,2,2,0,0,0-1.06.28,2.37,2.37,0,0,0-.87,1L86.22,83a.94.94,0,0,1-.3.48c-.42.26-.74.22-1-.11a.77.77,0,0,1-.08-.65A8.2,8.2,0,0,1,85.53,81a3.66,3.66,0,0,1,1.26-1.38A3.62,3.62,0,0,1,88.91,79a2.15,2.15,0,0,1,1.85,1,4,4,0,0,1,.55,1.26,3.84,3.84,0,0,1,.07,1.31,8,8,0,0,1-.79,2.22,10.93,10.93,0,0,0-.83,2A2.77,2.77,0,0,0,90.17,89l1.19-.92c.84-.59,1.45-1,1.82-1.24a2.83,2.83,0,0,1,1-.4c.46-.08.76,0,.92.25a.71.71,0,0,1,.11.53A.63.63,0,0,1,94.9,87.66Z" fill="none" stroke="#c6f7db" stroke-miterlimit="10"/><path d="M115.8,74.91a4.17,4.17,0,0,1-1.91.66A2.68,2.68,0,0,1,112,75a.61.61,0,0,1-.17-.19.57.57,0,0,1-.07-.52.7.7,0,0,1,.33-.44.61.61,0,0,1,.56,0l.55.25a1.54,1.54,0,0,0,.88.07,2.69,2.69,0,0,0,1-.41,2.11,2.11,0,0,0,.91-1.15,1.6,1.6,0,0,0-.15-1.42,2.15,2.15,0,0,0-1.61-1.06,3.67,3.67,0,0,0-2,.42c-.49.25-.83.2-1-.12s-.08-.54.19-.89l1.24-1.28a1.72,1.72,0,0,0,.38-.82,1.11,1.11,0,0,0-.18-.78,1.2,1.2,0,0,0-1-.61,2.41,2.41,0,0,0-1.48.45,1.93,1.93,0,0,0-.68.71l-.42.88a.87.87,0,0,1-.25.33.67.67,0,0,1-.54.08.76.76,0,0,1-.44-.32c-.21-.33-.09-.84.35-1.53a3.84,3.84,0,0,1,1.1-1.24,4,4,0,0,1,2.46-.74,2.48,2.48,0,0,1,2,1.27,2.16,2.16,0,0,1,0,2.64l-.18.24a2.89,2.89,0,0,1,1.79.13,3.09,3.09,0,0,1,1.34,1.24,3.28,3.28,0,0,1,.44,2.6A3.33,3.33,0,0,1,115.8,74.91Z" fill="none" stroke="#c6f7db" stroke-miterlimit="10"/><path d="M139.71,55.75,141.14,58a.59.59,0,0,1-.2.92c-.44.27-.84.11-1.22-.48l-.18-.32-.16-.29-.89-1.39-2.75,1.64a11.86,11.86,0,0,1-1.2.68q-.61.26-.84-.09a1.5,1.5,0,0,1-.1-.91l.14-1,.25-6.32a1.45,1.45,0,0,1,.69-1.23c.46-.29.82-.23,1.07.17L139,54.56l.25-.17c.75-.47,1.26-.5,1.51-.1a.63.63,0,0,1-.12.86A4.8,4.8,0,0,1,139.71,55.75Zm-4.46-4.45c0,2.43,0,4.28-.1,5.53l2.6-1.55Z" fill="none" stroke="#c6f7db" stroke-miterlimit="10"/><polygon points="53.76 76.77 73.44 64.54 54.3 77.6 53.76 76.77" fill="#c6f7db"/><line x1="90.77" y1="144.83" x2="163.11" y2="95.49" fill="none" stroke="#c6f7db" stroke-miterlimit="10" stroke-width="4"/><path d="M141.28,93c2-.32,4.06-.53,6.09-.8s4.06-.43,6.09-.6,4.06-.7,6.09-.4a16.82,16.82,0,0,1,6.1,1.8v.4a16.62,16.62,0,0,1-6.1,1.8c-2,.3-4.06-.23-6.09-.4s-4.06-.36-6.09-.6-4.06-.48-6.09-.8Z" fill="#c6f7db"/><path d="M156.64,118.58c.47-2.26,1-4.49,1.56-6.73s1.13-4.46,1.75-6.67c.3-1.1.54-2.23.8-3.36a16.16,16.16,0,0,1,1.13-3.24,24.73,24.73,0,0,1,1.72-3,16.18,16.18,0,0,1,2.29-2.82l.38.13a16.37,16.37,0,0,1,0,3.64,24.1,24.1,0,0,1-.6,3.43,16.23,16.23,0,0,1-1.18,3.23c-.51,1-1,2-1.51,3.1-.93,2.1-1.89,4.18-2.88,6.26s-2,4.15-3.07,6.19Z" fill="#c6f7db"/><polygon points="121.58 33.67 141.26 21.44 122.12 34.51 121.58 33.67" fill="#c6f7db"/></g></g></svg>